<?xml version="1.0" encoding="utf-8"?>
<!-- Generator: Adobe Illustrator 24.0.1, SVG Export Plug-In . SVG Version: 6.00 Build 0)  -->
<svg version="1.1" id="Capa_1" xmlns="http://www.w3.org/2000/svg" xmlns:xlink="http://www.w3.org/1999/xlink" x="0px" y="0px"
	 viewBox="0 0 280.1 280.1" style="enable-background:new 0 0 280.1 280.1;" xml:space="preserve">
<g>
	<g>
		<g>
			<path d="M31,249.1c4.2,4.2,9.7,6.3,15.1,6.3s11-2.1,15.1-6.3l78.7-78.7l78.7,78.7c4.2,4.2,9.7,6.3,15.1,6.3s11-2.1,15.1-6.3
				c8.4-8.4,8.4-21.9,0-30.3L170.3,140l78.7-78.7c8.4-8.4,8.4-21.9,0-30.3c-8.4-8.4-21.9-8.4-30.3,0L140,109.8L61.3,31
				c-8.4-8.4-21.9-8.4-30.3,0c-8.4,8.4-8.4,21.9,0,30.3l78.7,78.7L31,218.8C22.6,227.2,22.6,240.7,31,249.1z"/>
			<path d="M233.9,255.9c-5.9,0-11.4-2.3-15.5-6.4L140,171l-78.4,78.4c-4.1,4.1-9.6,6.4-15.5,6.4s-11.4-2.3-15.5-6.4
				c-4.1-4.1-6.4-9.6-6.4-15.5c0-5.9,2.3-11.4,6.4-15.5L109,140L30.7,61.7c-8.5-8.5-8.5-22.5,0-31c4.1-4.1,9.6-6.4,15.5-6.4
				c5.9,0,11.4,2.3,15.5,6.4L140,109l78.4-78.4c4.1-4.1,9.6-6.4,15.5-6.4c5.9,0,11.4,2.3,15.5,6.4c4.1,4.1,6.4,9.6,6.4,15.5
				s-2.3,11.4-6.4,15.5L171,140l78.4,78.4c4.1,4.1,6.4,9.6,6.4,15.5c0,5.9-2.3,11.4-6.4,15.5C245.3,253.6,239.8,255.9,233.9,255.9z
				 M140,169.6l79.1,79.1c4,4,9.2,6.1,14.8,6.1c5.6,0,10.8-2.2,14.8-6.1c4-4,6.1-9.2,6.1-14.8s-2.2-10.8-6.1-14.8L169.6,140
				L248.7,61c4-4,6.1-9.2,6.1-14.8s-2.2-10.8-6.1-14.8c-4-4-9.2-6.1-14.8-6.1s-10.8,2.2-14.8,6.1L140,110.5L60.9,31.4
				c-4-4-9.2-6.1-14.8-6.1s-10.8,2.2-14.8,6.1c-8.2,8.2-8.2,21.4,0,29.6l79.1,79.1l-79.1,79.1c-4,4-6.1,9.2-6.1,14.8
				s2.2,10.8,6.1,14.8c4,4,9.2,6.1,14.8,6.1s10.8-2.2,14.8-6.1L140,169.6z"/>
		</g>
	</g>
</g>
</svg>
